<?xml version="1.0" encoding="UTF-8" standalone="no"?>
<!DOCTYPE svg PUBLIC "-//W3C//DTD SVG 1.1//EN" "http://www.w3.org/Graphics/SVG/1.1/DTD/svg11.dtd">
<svg xmlns="http://www.w3.org/2000/svg" version="1.1" viewBox="0.00 0.00 150.00 150.00">
<g stroke-width="2.00" fill="none" stroke-linecap="butt">
<path stroke="#9e9522" vector-effect="non-scaling-stroke" d="
  M 47.50 35.30
  A 0.55 0.55 0.0 0 1 48.05 34.75
  L 57.95 34.75
  A 0.55 0.55 0.0 0 1 58.50 35.30
  L 58.50 73.95
  A 0.55 0.55 0.0 0 0 59.05 74.50
  L 78.71 74.50
  A 0.55 0.55 0.0 0 0 79.26 73.95
  L 79.24 7.05
  A 0.55 0.55 0.0 0 0 78.69 6.50
  L 21.04 6.50
  A 0.55 0.55 0.0 0 0 20.49 7.05
  L 20.52 109.48
  A 0.55 0.55 0.0 0 0 21.07 110.03
  L 46.95 110.01
  A 0.55 0.55 0.0 0 0 47.50 109.46
  L 47.50 35.30"
/>
<path stroke="#9f9e9e" vector-effect="non-scaling-stroke" d="
  M 118.41 71.25
  A 0.34 0.34 0.0 0 1 118.75 71.59
  L 118.75 107.13
  A 0.34 0.34 0.0 0 0 119.09 107.47
  L 131.42 107.56
  A 0.34 0.34 0.0 0 0 131.76 107.22
  L 131.58 58.84
  A 0.34 0.34 0.0 0 0 131.24 58.50
  L 83.84 58.50
  A 0.34 0.34 0.0 0 0 83.50 58.84
  L 83.50 70.91
  A 0.34 0.34 0.0 0 0 83.84 71.25
  L 118.41 71.25"
/>
<path stroke="#9e9522" vector-effect="non-scaling-stroke" d="
  M 79.2717 84.8380
  A 0.34 0.34 0.0 0 0 78.9323 84.4975
  L 58.9523 84.4626
  A 0.34 0.34 0.0 0 0 58.6117 84.8020
  L 58.5683 109.6620
  A 0.34 0.34 0.0 0 0 58.9077 110.0025
  L 78.8877 110.0374
  A 0.34 0.34 0.0 0 0 79.2283 109.6980
  L 79.2717 84.8380"
/>
<path stroke="#9f9e9e" vector-effect="non-scaling-stroke" d="
  M 46.5204 134.1687
  A 7.27 6.77 91.1 0 0 53.4288 127.0300
  A 7.27 6.77 91.1 0 0 46.7996 119.6313
  A 7.27 6.77 91.1 0 0 39.8912 126.7700
  A 7.27 6.77 91.1 0 0 46.5204 134.1687"
/>
<path stroke="#9f9e9e" vector-effect="non-scaling-stroke" d="
  M 61.50 126.02
  L 61.50 120.28
  Q 61.50 119.52 60.77 119.75
  L 60.34 119.89
  Q 59.75 120.07 59.75 120.68
  L 59.75 133.28
  A 0.45 0.44 3.7 0 0 60.14 133.72
  L 61.03 133.84
  A 0.59 0.59 0.0 0 0 61.67 133.09
  Q 60.61 129.55 63.15 127.45
  A 0.98 0.97 -36.6 0 1 64.59 127.66
  Q 66.44 130.44 68.55 133.20
  Q 69.31 134.19 70.51 133.97
  Q 71.24 133.84 70.80 133.24
  L 65.63 126.24
  A 1.04 1.03 50.1 0 1 65.75 124.87
  L 70.55 120.39
  A 0.37 0.37 0.0 0 0 70.30 119.75
  L 69.14 119.75
  A 0.80 0.77 -66.1 0 0 68.60 119.97
  L 62.04 126.25
  Q 61.50 126.77 61.50 126.02"
/>
<path stroke="#9f9e9e" vector-effect="non-scaling-stroke" d="
  M 79.35 127.60
  C 83.76 127.38 84.86 130.15 86.81 133.42
  Q 87.29 134.22 88.53 133.89
  Q 89.26 133.69 88.82 133.07
  L 85.09 127.79
  Q 84.83 127.41 85.26 127.24
  C 88.60 125.94 89.53 121.30 85.79 120.17
  Q 82.87 119.28 77.25 120.00
  Q 76.82 120.06 76.83 120.49
  L 77.05 133.28
  Q 77.06 134.00 77.78 134.00
  L 78.25 134.00
  Q 78.75 134.00 78.75 133.50
  L 78.75 128.23
  A 0.63 0.63 0.0 0 1 79.35 127.60"
/>
<path stroke="#9f9e9e" vector-effect="non-scaling-stroke" d="
  M 100.80 119.95
  L 99.74 119.81
  Q 99.01 119.72 98.75 120.40
  L 93.87 133.29
  A 0.53 0.52 -77.5 0 0 94.32 134.00
  C 96.18 134.13 96.29 131.26 96.89 130.04
  Q 97.15 129.50 97.75 129.50
  L 102.52 129.50
  Q 103.07 129.50 103.25 130.02
  L 104.38 133.33
  A 1.12 1.09 -37.8 0 0 106.35 133.55
  Q 106.41 133.46 106.14 132.79
  Q 103.56 126.40 101.12 120.20
  A 0.40 0.38 -6.0 0 0 100.80 119.95"
/>
<path stroke="#9f9e9e" vector-effect="non-scaling-stroke" d="
  M 46.8353 132.4572
  A 5.58 4.89 88.2 0 0 51.5476 126.7264
  A 5.58 4.89 88.2 0 0 46.4847 121.3028
  A 5.58 4.89 88.2 0 0 41.7724 127.0336
  A 5.58 4.89 88.2 0 0 46.8353 132.4572"
/>
<path stroke="#9f9e9e" vector-effect="non-scaling-stroke" d="
  M 78.72 122.29
  L 78.74 125.17
  A 0.81 0.81 0.0 0 0 79.55 125.98
  L 82.96 125.97
  A 3.30 2.07 -0.2 0 0 86.25 123.89
  L 86.25 123.53
  A 3.30 2.07 -0.2 0 0 82.94 121.47
  L 79.53 121.48
  A 0.81 0.81 0.0 0 0 78.72 122.29"
/>
<path stroke="#9f9e9e" vector-effect="non-scaling-stroke" d="
  M 97.86 127.35
  A 0.48 0.48 0.0 0 0 98.31 127.99
  L 101.68 128.00
  A 0.48 0.48 0.0 0 0 102.13 127.36
  L 100.46 122.55
  A 0.48 0.48 0.0 0 0 99.55 122.55
  L 97.86 127.35"
/>
</g>
<path fill="#3e3c3d" d="
  M 0.00 0.00
  L 150.00 0.00
  L 150.00 150.00
  L 0.00 150.00
  L 0.00 0.00
  Z
  M 47.50 35.30
  A 0.55 0.55 0.0 0 1 48.05 34.75
  L 57.95 34.75
  A 0.55 0.55 0.0 0 1 58.50 35.30
  L 58.50 73.95
  A 0.55 0.55 0.0 0 0 59.05 74.50
  L 78.71 74.50
  A 0.55 0.55 0.0 0 0 79.26 73.95
  L 79.24 7.05
  A 0.55 0.55 0.0 0 0 78.69 6.50
  L 21.04 6.50
  A 0.55 0.55 0.0 0 0 20.49 7.05
  L 20.52 109.48
  A 0.55 0.55 0.0 0 0 21.07 110.03
  L 46.95 110.01
  A 0.55 0.55 0.0 0 0 47.50 109.46
  L 47.50 35.30
  Z
  M 118.41 71.25
  A 0.34 0.34 0.0 0 1 118.75 71.59
  L 118.75 107.13
  A 0.34 0.34 0.0 0 0 119.09 107.47
  L 131.42 107.56
  A 0.34 0.34 0.0 0 0 131.76 107.22
  L 131.58 58.84
  A 0.34 0.34 0.0 0 0 131.24 58.50
  L 83.84 58.50
  A 0.34 0.34 0.0 0 0 83.50 58.84
  L 83.50 70.91
  A 0.34 0.34 0.0 0 0 83.84 71.25
  L 118.41 71.25
  Z
  M 79.2717 84.8380
  A 0.34 0.34 0.0 0 0 78.9323 84.4975
  L 58.9523 84.4626
  A 0.34 0.34 0.0 0 0 58.6117 84.8020
  L 58.5683 109.6620
  A 0.34 0.34 0.0 0 0 58.9077 110.0025
  L 78.8877 110.0374
  A 0.34 0.34 0.0 0 0 79.2283 109.6980
  L 79.2717 84.8380
  Z
  M 46.5204 134.1687
  A 7.27 6.77 91.1 0 0 53.4288 127.0300
  A 7.27 6.77 91.1 0 0 46.7996 119.6313
  A 7.27 6.77 91.1 0 0 39.8912 126.7700
  A 7.27 6.77 91.1 0 0 46.5204 134.1687
  Z
  M 61.50 126.02
  L 61.50 120.28
  Q 61.50 119.52 60.77 119.75
  L 60.34 119.89
  Q 59.75 120.07 59.75 120.68
  L 59.75 133.28
  A 0.45 0.44 3.7 0 0 60.14 133.72
  L 61.03 133.84
  A 0.59 0.59 0.0 0 0 61.67 133.09
  Q 60.61 129.55 63.15 127.45
  A 0.98 0.97 -36.6 0 1 64.59 127.66
  Q 66.44 130.44 68.55 133.20
  Q 69.31 134.19 70.51 133.97
  Q 71.24 133.84 70.80 133.24
  L 65.63 126.24
  A 1.04 1.03 50.1 0 1 65.75 124.87
  L 70.55 120.39
  A 0.37 0.37 0.0 0 0 70.30 119.75
  L 69.14 119.75
  A 0.80 0.77 -66.1 0 0 68.60 119.97
  L 62.04 126.25
  Q 61.50 126.77 61.50 126.02
  Z
  M 79.35 127.60
  C 83.76 127.38 84.86 130.15 86.81 133.42
  Q 87.29 134.22 88.53 133.89
  Q 89.26 133.69 88.82 133.07
  L 85.09 127.79
  Q 84.83 127.41 85.26 127.24
  C 88.60 125.94 89.53 121.30 85.79 120.17
  Q 82.87 119.28 77.25 120.00
  Q 76.82 120.06 76.83 120.49
  L 77.05 133.28
  Q 77.06 134.00 77.78 134.00
  L 78.25 134.00
  Q 78.75 134.00 78.75 133.50
  L 78.75 128.23
  A 0.63 0.63 0.0 0 1 79.35 127.60
  Z
  M 100.80 119.95
  L 99.74 119.81
  Q 99.01 119.72 98.75 120.40
  L 93.87 133.29
  A 0.53 0.52 -77.5 0 0 94.32 134.00
  C 96.18 134.13 96.29 131.26 96.89 130.04
  Q 97.15 129.50 97.75 129.50
  L 102.52 129.50
  Q 103.07 129.50 103.25 130.02
  L 104.38 133.33
  A 1.12 1.09 -37.8 0 0 106.35 133.55
  Q 106.41 133.46 106.14 132.79
  Q 103.56 126.40 101.12 120.20
  A 0.40 0.38 -6.0 0 0 100.80 119.95
  Z"
/>
<path fill="#feed07" d="
  M 47.50 35.30
  L 47.50 109.46
  A 0.55 0.55 0.0 0 1 46.95 110.01
  L 21.07 110.03
  A 0.55 0.55 0.0 0 1 20.52 109.48
  L 20.49 7.05
  A 0.55 0.55 0.0 0 1 21.04 6.50
  L 78.69 6.50
  A 0.55 0.55 0.0 0 1 79.24 7.05
  L 79.26 73.95
  A 0.55 0.55 0.0 0 1 78.71 74.50
  L 59.05 74.50
  A 0.55 0.55 0.0 0 1 58.50 73.95
  L 58.50 35.30
  A 0.55 0.55 0.0 0 0 57.95 34.75
  L 48.05 34.75
  A 0.55 0.55 0.0 0 0 47.50 35.30
  Z"
/>
<path fill="#ffffff" d="
  M 118.41 71.25
  L 83.84 71.25
  A 0.34 0.34 0.0 0 1 83.50 70.91
  L 83.50 58.84
  A 0.34 0.34 0.0 0 1 83.84 58.50
  L 131.24 58.50
  A 0.34 0.34 0.0 0 1 131.58 58.84
  L 131.76 107.22
  A 0.34 0.34 0.0 0 1 131.42 107.56
  L 119.09 107.47
  A 0.34 0.34 0.0 0 1 118.75 107.13
  L 118.75 71.59
  A 0.34 0.34 0.0 0 0 118.41 71.25
  Z"
/>
<rect fill="#feed07" x="-10.33" y="-12.77" transform="translate(68.92,97.25) rotate(0.1)" width="20.66" height="25.54" rx="0.34"/>
<path fill="#ffffff" d="
  M 46.5204 134.1687
  A 7.27 6.77 91.1 0 1 39.8912 126.7700
  A 7.27 6.77 91.1 0 1 46.7996 119.6313
  A 7.27 6.77 91.1 0 1 53.4288 127.0300
  A 7.27 6.77 91.1 0 1 46.5204 134.1687
  Z
  M 46.8353 132.4572
  A 5.58 4.89 88.2 0 0 51.5476 126.7264
  A 5.58 4.89 88.2 0 0 46.4847 121.3028
  A 5.58 4.89 88.2 0 0 41.7724 127.0336
  A 5.58 4.89 88.2 0 0 46.8353 132.4572
  Z"
/>
<path fill="#ffffff" d="
  M 62.04 126.25
  L 68.60 119.97
  A 0.80 0.77 -66.1 0 1 69.14 119.75
  L 70.30 119.75
  A 0.37 0.37 0.0 0 1 70.55 120.39
  L 65.75 124.87
  A 1.04 1.03 50.1 0 0 65.63 126.24
  L 70.80 133.24
  Q 71.24 133.84 70.51 133.97
  Q 69.31 134.19 68.55 133.20
  Q 66.44 130.44 64.59 127.66
  A 0.98 0.97 -36.6 0 0 63.15 127.45
  Q 60.61 129.55 61.67 133.09
  A 0.59 0.59 0.0 0 1 61.03 133.84
  L 60.14 133.72
  A 0.45 0.44 3.7 0 1 59.75 133.28
  L 59.75 120.68
  Q 59.75 120.07 60.34 119.89
  L 60.77 119.75
  Q 61.50 119.52 61.50 120.28
  L 61.50 126.02
  Q 61.50 126.77 62.04 126.25
  Z"
/>
<path fill="#ffffff" d="
  M 78.75 128.23
  L 78.75 133.50
  Q 78.75 134.00 78.25 134.00
  L 77.78 134.00
  Q 77.06 134.00 77.05 133.28
  L 76.83 120.49
  Q 76.82 120.06 77.25 120.00
  Q 82.87 119.28 85.79 120.17
  C 89.53 121.30 88.60 125.94 85.26 127.24
  Q 84.83 127.41 85.09 127.79
  L 88.82 133.07
  Q 89.26 133.69 88.53 133.89
  Q 87.29 134.22 86.81 133.42
  C 84.86 130.15 83.76 127.38 79.35 127.60
  A 0.63 0.63 0.0 0 0 78.75 128.23
  Z
  M 78.72 122.29
  L 78.74 125.17
  A 0.81 0.81 0.0 0 0 79.55 125.98
  L 82.96 125.97
  A 3.30 2.07 -0.2 0 0 86.25 123.89
  L 86.25 123.53
  A 3.30 2.07 -0.2 0 0 82.94 121.47
  L 79.53 121.48
  A 0.81 0.81 0.0 0 0 78.72 122.29
  Z"
/>
<path fill="#ffffff" d="
  M 100.80 119.95
  A 0.40 0.38 -6.0 0 1 101.12 120.20
  Q 103.56 126.40 106.14 132.79
  Q 106.41 133.46 106.35 133.55
  A 1.12 1.09 -37.8 0 1 104.38 133.33
  L 103.25 130.02
  Q 103.07 129.50 102.52 129.50
  L 97.75 129.50
  Q 97.15 129.50 96.89 130.04
  C 96.29 131.26 96.18 134.13 94.32 134.00
  A 0.53 0.52 -77.5 0 1 93.87 133.29
  L 98.75 120.40
  Q 99.01 119.72 99.74 119.81
  L 100.80 119.95
  Z
  M 97.86 127.35
  A 0.48 0.48 0.0 0 0 98.31 127.99
  L 101.68 128.00
  A 0.48 0.48 0.0 0 0 102.13 127.36
  L 100.46 122.55
  A 0.48 0.48 0.0 0 0 99.55 122.55
  L 97.86 127.35
  Z"
/>
<ellipse fill="#3e3c3d" cx="0.00" cy="0.00" transform="translate(46.66,126.88) rotate(88.2)" rx="5.58" ry="4.89"/>
<path fill="#3e3c3d" d="
  M 78.72 122.29
  A 0.81 0.81 0.0 0 1 79.53 121.48
  L 82.94 121.47
  A 3.30 2.07 -0.2 0 1 86.25 123.53
  L 86.25 123.89
  A 3.30 2.07 -0.2 0 1 82.96 125.97
  L 79.55 125.98
  A 0.81 0.81 0.0 0 1 78.74 125.17
  L 78.72 122.29
  Z"
/>
<path fill="#3e3c3d" d="
  M 97.86 127.35
  L 99.55 122.55
  A 0.48 0.48 0.0 0 1 100.46 122.55
  L 102.13 127.36
  A 0.48 0.48 0.0 0 1 101.68 128.00
  L 98.31 127.99
  A 0.48 0.48 0.0 0 1 97.86 127.35
  Z"
/>
</svg>
